<svg xmlns="http://www.w3.org/2000/svg" viewBox="0 0 64 64" role="img" aria-label="shuai-tunnel">
  <defs>
    <linearGradient id="bg" x1="10" y1="6" x2="54" y2="58" gradientUnits="userSpaceOnUse">
      <stop stop-color="#07111f" />
      <stop offset="1" stop-color="#05070c" />
    </linearGradient>
    <linearGradient id="tunnel" x1="22" y1="14" x2="42" y2="50" gradientUnits="userSpaceOnUse">
      <stop stop-color="#f0fdff" />
      <stop offset=".48" stop-color="#67e8f9" />
      <stop offset="1" stop-color="#0e7490" />
    </linearGradient>
    <linearGradient id="cyan" x1="33" y1="28" x2="56" y2="17" gradientUnits="userSpaceOnUse">
      <stop stop-color="#67e8f9" />
      <stop offset="1" stop-color="#0891b2" />
    </linearGradient>
    <linearGradient id="amber" x1="33" y1="36" x2="56" y2="47" gradientUnits="userSpaceOnUse">
      <stop stop-color="#fbbf24" />
      <stop offset="1" stop-color="#f97316" />
    </linearGradient>
    <filter id="glow" x="-30%" y="-30%" width="160%" height="160%">
      <feGaussianBlur stdDeviation="2.2" result="blur" />
      <feMerge>
        <feMergeNode in="blur" />
        <feMergeNode in="SourceGraphic" />
      </feMerge>
    </filter>
  </defs>
  <rect width="64" height="64" rx="14" fill="url(#bg)" />
  <path d="M11 18h9M44 18h9M11 46h9M44 46h9" fill="none" stroke="#164e63" stroke-width="1.5" stroke-linecap="round" opacity=".52" />
  <path d="M10 32h14" fill="none" stroke="#e5faff" stroke-width="4.5" stroke-linecap="round" opacity=".96" />
  <ellipse cx="32" cy="32" rx="11.5" ry="17" fill="#082f49" opacity=".42" />
  <ellipse cx="32" cy="32" rx="11.5" ry="17" fill="none" stroke="url(#tunnel)" stroke-width="4" />
  <ellipse cx="32" cy="32" rx="5.7" ry="9" fill="none" stroke="#bae6fd" stroke-width="2" opacity=".82" />
  <path d="M37 27c5-5 10-7 16-7" fill="none" stroke="url(#cyan)" stroke-width="4.5" stroke-linecap="round" />
  <path d="M37 37c5 5 10 7 16 7" fill="none" stroke="url(#amber)" stroke-width="4.5" stroke-linecap="round" />
  <circle cx="10" cy="32" r="4" fill="#f8fafc" filter="url(#glow)" />
  <circle cx="53" cy="20" r="4" fill="#67e8f9" filter="url(#glow)" />
  <circle cx="53" cy="44" r="4" fill="#fbbf24" filter="url(#glow)" />
</svg>
